<?xml version="1.0" encoding="UTF-8"?>
<svg version="1.1" xmlns="http://www.w3.org/2000/svg" width="319" height="319">
<path d="M0 0 C105.27 0 210.54 0 319 0 C319 105.27 319 210.54 319 319 C213.73 319 108.46 319 0 319 C0 213.73 0 108.46 0 0 Z " fill="#FDFDFD" transform="translate(0,0)"/>
<path d="M0 0 C-1.23363281 0.92619141 -1.23363281 0.92619141 -2.4921875 1.87109375 C-8.81012366 6.65066712 -14.89705945 11.54242551 -20.73046875 16.9140625 C-22.8276005 18.84154676 -24.96376355 20.70761357 -27.125 22.5625 C-28.41993785 23.70463518 -29.71165153 24.85043703 -31 26 C-31.63421875 26.55558594 -32.2684375 27.11117187 -32.921875 27.68359375 C-56.03627578 49.17998648 -66.09280857 84.66358957 -68.22265625 115.19140625 C-68.75352731 134.00270676 -62.58572457 152.8137694 -54.7578125 169.67578125 C-54.38398437 170.48402344 -54.01015625 171.29226562 -53.625 172.125 C-53.11839844 173.18074219 -53.11839844 173.18074219 -52.6015625 174.2578125 C-52.40304688 174.83273438 -52.20453125 175.40765625 -52 176 C-52.33 176.66 -52.66 177.32 -53 178 C-53.48210938 177.24074219 -53.96421875 176.48148438 -54.4609375 175.69921875 C-55.40839844 174.20841797 -55.40839844 174.20841797 -56.375 172.6875 C-57.00148438 171.70136719 -57.62796875 170.71523437 -58.2734375 169.69921875 C-59.49651613 167.78712071 -60.7409356 165.8885966 -62 164 C-54.77300583 184.3838297 -45.55072371 201.54583467 -30.42578125 217.203125 C-29 219 -29 219 -28.60546875 221.109375 C-28.30576172 222.04523438 -28.30576172 222.04523438 -28 223 C-25.63956444 224.0881329 -25.63956444 224.0881329 -23 225 C-21.140625 226.5234375 -21.140625 226.5234375 -19.25 228.375 C-7.87130923 238.75357367 4.99006439 246.7184582 19 253 C19.63631348 253.28601074 20.27262695 253.57202148 20.92822266 253.86669922 C27.53024702 256.80789345 34.19894536 259.55162033 41 262 C41 262.33 41 262.66 41 263 C30.80701414 262.84682672 23.21957769 261.58584189 14 257 C12.92492187 256.51660156 11.84984375 256.03320312 10.7421875 255.53515625 C-4.08075609 248.63016316 -20.68996033 238.54256942 -29 224 C-29 223.34 -29 222.68 -29 222 C-29.71671875 221.76023437 -30.4334375 221.52046875 -31.171875 221.2734375 C-49.649205 212.95353477 -60.57919888 188.30649212 -67.39404297 170.58056641 C-80.07305874 136.18643705 -79.2701632 98.64019621 -64.06640625 65.17578125 C-57.75806377 51.9833953 -48.01307646 40.41061613 -39 29 C-38.5241748 28.38817871 -38.04834961 27.77635742 -37.55810547 27.14599609 C-30.92621185 18.65764344 -11.60074307 -3.86691436 0 0 Z " fill="#2D3B48" transform="translate(94,45)"/>
<path d="M0 0 C3.02475268 3.02475268 2.91644248 6.39520416 3.1328125 10.55078125 C3.12295612 14.03501285 3.07654744 17.5167197 3 21 C2.97317139 22.37067627 2.97317139 22.37067627 2.94580078 23.76904297 C2.09683073 62.34450688 2.09683073 62.34450688 -7 75 C-9.19140625 76.31640625 -9.19140625 76.31640625 -11 77 C-10.855625 76.154375 -10.71125 75.30875 -10.5625 74.4375 C-9.99411563 70.96403993 -9.49309875 67.48484074 -9 64 C-9.26103516 64.51796143 -9.52207031 65.03592285 -9.79101562 65.56958008 C-19.85071211 85.41369676 -32.21399522 100.48669012 -48 116 C-49.13695312 117.20849609 -49.13695312 117.20849609 -50.296875 118.44140625 C-53.42278802 121.4001823 -56.67141739 123.66460605 -60.3125 125.9375 C-61.00746582 126.3713501 -61.70243164 126.8052002 -62.41845703 127.25219727 C-69.58251839 131.57528219 -77.03503427 134.4771036 -85 137 C-85.75547119 137.2467749 -86.51094238 137.4935498 -87.28930664 137.74780273 C-105.16576988 143.39159919 -123.70180807 144.39264538 -142.3125 144.4375 C-143.55161636 144.44648819 -143.55161636 144.44648819 -144.81576538 144.45565796 C-170.8101815 144.58138161 -170.8101815 144.58138161 -176.8762207 139.39624023 C-177.43249146 138.70510132 -177.43249146 138.70510132 -178 138 C-177.31413818 138.03029297 -176.62827637 138.06058594 -175.92163086 138.09179688 C-167.28310353 138.46270219 -158.64311689 138.76137072 -150 139 C-149.32287964 139.01887268 -148.64575928 139.03774536 -147.94812012 139.05718994 C-107.97572587 140.12606633 -76.34291677 128.14215425 -45 103 C-44.30003906 102.46503906 -43.60007812 101.93007812 -42.87890625 101.37890625 C-22.81324763 85.18910926 -6.47755783 53.86614042 -3.33984375 28.5546875 C-2.80419804 22.48225513 -2.6544312 16.38070985 -2.48242188 10.2890625 C-2.44826172 9.391875 -2.41410156 8.4946875 -2.37890625 7.5703125 C-2.34132202 6.36012451 -2.34132202 6.36012451 -2.30297852 5.12548828 C-2 3 -2 3 0 0 Z " fill="#2C3B48" transform="translate(304,151)"/>
<path d="M0 0 C0.66 0 1.32 0 2 0 C2 1.32 2 2.64 2 4 C3.98 4 5.96 4 8 4 C8 17.2 8 30.4 8 44 C6.02 44 4.04 44 2 44 C2 47.63 2 51.26 2 55 C1.34 55 0.68 55 0 55 C0 51.37 0 47.74 0 44 C-1.98 44 -3.96 44 -6 44 C-6 30.8 -6 17.6 -6 4 C-4.02 4 -2.04 4 0 4 C0 2.68 0 1.36 0 0 Z " fill="#90C7FF" transform="translate(152,93)"/>
<path d="M0 0 C4.41632177 -0.14509751 8.83203193 -0.23400818 13.25 -0.3125 C14.50425781 -0.35439453 15.75851563 -0.39628906 17.05078125 -0.43945312 C18.85869141 -0.46362305 18.85869141 -0.46362305 20.703125 -0.48828125 C22.36843262 -0.52755737 22.36843262 -0.52755737 24.06738281 -0.56762695 C27 0 27 0 29.36621094 2.31176758 C31.50345776 5.82838814 31.50693285 7.94453722 31 12 C30.4225 12.804375 29.845 13.60875 29.25 14.4375 C27.69799606 16.8656878 27.69799606 16.8656878 28.65625 19.015625 C29.69113087 21.07060273 30.80322296 23.03572464 32 25 C32.495 25.99 32.495 25.99 33 27 C28.25 30 28.25 30 26 30 C24.515 25.05 24.515 25.05 23 20 C23 22.97 23 25.94 23 29 C20.69 29 18.38 29 16 29 C16.33 21.41 16.66 13.82 17 6 C15.35 6 13.7 6 12 6 C12.33 13.59 12.66 21.18 13 29 C10.69 29 8.38 29 6 29 C6 21.41 6 13.82 6 6 C4.35 6.33 2.7 6.66 1 7 C0.67 4.69 0.34 2.38 0 0 Z " fill="#2B3946" transform="translate(154,175)"/>
<path d="M0 0 C2.97 0.33 5.94 0.66 9 1 C9.33 2.65 9.66 4.3 10 6 C10.66 4.35 11.32 2.7 12 1 C16.455 0.505 16.455 0.505 21 0 C21 9.9 21 19.8 21 30 C18.36 30 15.72 30 13 30 C12.67 25.38 12.34 20.76 12 16 C11.34 16.99 10.68 17.98 10 19 C9.34 17.35 8.68 15.7 8 14 C8 18.95 8 23.9 8 29 C5.69 29.33 3.38 29.66 1 30 C0.67 20.1 0.34 10.2 0 0 Z " fill="#2D3B48" transform="translate(70,175)"/>
<path d="M0 0 C15.72186112 13.81618098 21.57929582 38.96579109 24 59 C24.33994393 65.26919856 24.59929577 71.15158451 22 77 C20 76 20 76 19.32421875 74.3828125 C18.53704644 71.59148984 17.75799194 68.79947443 17 66 C16.79407227 65.25637207 16.58814453 64.51274414 16.37597656 63.74658203 C15.67980824 61.22908954 14.99464766 58.70882548 14.3125 56.1875 C14.0858667 55.36330566 13.8592334 54.53911133 13.62573242 53.68994141 C12.56769802 49.71147272 11.68795526 46.15778529 12 42 C12.99 42.66 13.98 43.32 15 44 C13.71506455 29.99420358 6.8318589 16.45196889 0.8125 3.8984375 C0 2 0 2 0 0 Z " fill="#2E3C49" transform="translate(284,73)"/>
<path d="M0 0 C9.22222222 0 9.22222222 0 13 3 C15.4590567 6.68858506 15.33184578 9.54482186 15.3125 13.8125 C15.32861328 14.51181641 15.34472656 15.21113281 15.36132812 15.93164062 C15.36580206 20.71428183 14.49674338 23.93595786 12 28 C11.34 28.66 10.68 29.32 10 30 C6.7 30 3.4 30 0 30 C0 20.1 0 10.2 0 0 Z " fill="#2A3846" transform="translate(209,175)"/>
<path d="M0 0 C0.66 0 1.32 0 2 0 C2 4.95 2 9.9 2 15 C3.98 15 5.96 15 8 15 C8 22.26 8 29.52 8 37 C6.02 37 4.04 37 2 37 C2 40.63 2 44.26 2 48 C1.34 48 0.68 48 0 48 C0 44.37 0 40.74 0 37 C-1.98 37 -3.96 37 -6 37 C-6 29.74 -6 22.48 -6 15 C-4.02 15 -2.04 15 0 15 C0 10.05 0 5.1 0 0 Z " fill="#97CBFF" transform="translate(192,95)"/>
<path d="M0 0 C0.0501123 0.589021 0.10022461 1.17804199 0.15185547 1.78491211 C0.38668458 4.50301913 0.63079109 7.22022028 0.875 9.9375 C0.95363281 10.86369141 1.03226563 11.78988281 1.11328125 12.74414062 C1.65171874 18.64624383 2.59429962 24.24135349 4 30 C1.69 29.67 -0.62 29.34 -3 29 C-3.33 27.35 -3.66 25.7 -4 24 C-4.99 23.67 -5.98 23.34 -7 23 C-7.33 24.98 -7.66 26.96 -8 29 C-10.31 29 -12.62 29 -15 29 C-14.52488016 25.08283132 -14.04420382 21.16636404 -13.5625 17.25 C-13.42779297 16.13882813 -13.29308594 15.02765625 -13.15429688 13.8828125 C-13.02216797 12.81289062 -12.89003906 11.74296875 -12.75390625 10.640625 C-12.63345947 9.65610352 -12.5130127 8.67158203 -12.38891602 7.65722656 C-12.05532586 5.37800798 -11.60987459 3.21856266 -11 1 C-9.35422741 0.83273455 -7.70838013 0.66620388 -6.0625 0.5 C-4.68771484 0.36078125 -4.68771484 0.36078125 -3.28515625 0.21875 C-1 0 -1 0 0 0 Z " fill="#293845" transform="translate(139,175)"/>
<path d="M0 0 C3.63 0 7.26 0 11 0 C11.12117187 1.17175781 11.24234375 2.34351563 11.3671875 3.55078125 C12.27206679 12.10252774 13.25451887 20.56969752 15 29 C12.69 29 10.38 29 8 29 C7.67 27.02 7.34 25.04 7 23 C6.01 22.67 5.02 22.34 4 22 C4 23.98 4 25.96 4 28 C1.69 28 -0.62 28 -3 28 C-2.32489224 18.61955539 -1.21844445 9.32169156 0 0 Z " fill="#293745" transform="translate(192,176)"/>
<path d="M0 0 C2.9375 2.0625 2.9375 2.0625 5 5 C5.5 8.5625 5.5 8.5625 5 12 C4.46375 12.61875 3.9275 13.2375 3.375 13.875 C1.76415405 15.88063876 1.76415405 15.88063876 2.2109375 18.13671875 C2.95855053 21.50097739 3.91027604 24.73082812 5 28 C3.02 28.66 1.04 29.32 -1 30 C-1.66 27.03 -2.32 24.06 -3 21 C-3 23.64 -3 26.28 -3 29 C-5.31 29.33 -7.62 29.66 -10 30 C-10 20.43 -10 10.86 -10 1 C-6.36217368 -0.21260877 -3.82264001 -0.39544552 0 0 Z " fill="#293845" transform="translate(250,175)"/>
<path d="M0 0 C0.66 0 1.32 0 2 0 C2 1.98 2 3.96 2 6 C3.98 6 5.96 6 8 6 C8 12.27 8 18.54 8 25 C6.02 25 4.04 25 2 25 C2 29.29 2 33.58 2 38 C1.34 38 0.68 38 0 38 C0 33.71 0 29.42 0 25 C-1.98 25 -3.96 25 -6 25 C-6 18.73 -6 12.46 -6 6 C-4.02 6 -2.04 6 0 6 C0 4.02 0 2.04 0 0 Z " fill="#A2D0FF" transform="translate(132,91)"/>
<path d="M0 0 C21.45659756 -0.91583038 46.00714807 16.07044739 61.3515625 29.984375 C70.45588622 38.56943568 79.21559453 48.83011358 85 60 C84.505 60.99 84.505 60.99 84 62 C83.45472656 61.32195312 82.90945313 60.64390625 82.34765625 59.9453125 C77.08363691 53.44852282 71.7069926 47.11200497 66 41 C65.11828125 40.0409375 64.2365625 39.081875 63.328125 38.09375 C45.98385279 19.68149543 23.47480637 9.37571136 0 1 C0 0.67 0 0.34 0 0 Z " fill="#33414E" transform="translate(199,30)"/>
<path d="M0 0 C6.27 0 12.54 0 19 0 C18.67 2.31 18.34 4.62 18 7 C15.03 6.505 15.03 6.505 12 6 C12 13.59 12 21.18 12 29 C9.69 29 7.38 29 5 29 C5 21.41 5 13.82 5 6 C3.35 6.33 1.7 6.66 0 7 C0 4.69 0 2.38 0 0 Z " fill="#303E4B" transform="translate(107,175)"/>
<path d="M0 0 C0.66 0 1.32 0 2 0 C2 3.63 2 7.26 2 11 C3.98 11 5.96 11 8 11 C8 16.28 8 21.56 8 27 C6.02 27 4.04 27 2 27 C2 29.97 2 32.94 2 36 C1.34 36 0.68 36 0 36 C0 33.03 0 30.06 0 27 C-1.98 27 -3.96 27 -6 27 C-6 21.72 -6 16.44 -6 11 C-4.02 11 -2.04 11 0 11 C0 7.37 0 3.74 0 0 Z " fill="#92C8FF" transform="translate(172,121)"/>
<path d="M0 0 C3.96 0.33 7.92 0.66 12 1 C12 2.98 12 4.96 12 7 C10.02 7.33 8.04 7.66 6 8 C5.67 9.65 5.34 11.3 5 13 C6.98 13 8.96 13 11 13 C11 14.98 11 16.96 11 19 C9.35 18.67 7.7 18.34 6 18 C6 20.31 6 22.62 6 25 C8.31 25 10.62 25 13 25 C13.33 26.65 13.66 28.3 14 30 C9.38 30 4.76 30 0 30 C0 20.1 0 10.2 0 0 Z " fill="#2F3D4B" transform="translate(225,175)"/>
<path d="M0 0 C-0.82242188 0.61746094 -1.64484375 1.23492187 -2.4921875 1.87109375 C-8.81012366 6.65066712 -14.89705945 11.54242551 -20.73046875 16.9140625 C-22.8276005 18.84154676 -24.96376355 20.70761357 -27.125 22.5625 C-34.65503115 29.18711659 -40.45979741 35.78856557 -45.82421875 44.2421875 C-48.11116663 47.1409042 -49.49414502 48.02990353 -53 49 C-51.72645622 46.3183341 -50.33940732 43.94563093 -48.56640625 41.56640625 C-48.08824463 40.92396973 -47.61008301 40.2815332 -47.11743164 39.61962891 C-44.43049502 36.06489065 -41.72878135 32.52274413 -39 29 C-38.52820312 28.38785645 -38.05640625 27.77571289 -37.5703125 27.14501953 C-30.95898982 18.6587372 -11.57887165 -3.85962388 0 0 Z " fill="#313F4C" transform="translate(94,45)"/>
<path d="M0 0 C3.63 0 7.26 0 11 0 C11 1.98 11 3.96 11 6 C9.02 6 7.04 6 5 6 C5 7.98 5 9.96 5 12 C6.65 12 8.3 12 10 12 C10 13.65 10 15.3 10 17 C8.68 17.33 7.36 17.66 6 18 C5.67 19.98 5.34 21.96 5 24 C8.96 23.505 8.96 23.505 13 23 C13 24.98 13 26.96 13 29 C8.71 28.67 4.42 28.34 0 28 C0 18.76 0 9.52 0 0 Z " fill="#293845" transform="translate(93,176)"/>
<path d="M0 0 C-1.46146187 4.38438561 -4.86579738 5.39062958 -8.75 7.4375 C-10.38116466 8.31593485 -12.01133044 9.19622639 -13.640625 10.078125 C-14.50623047 10.54541016 -15.37183594 11.01269531 -16.26367188 11.49414062 C-19.13413879 13.07381942 -21.96755491 14.70720347 -24.796875 16.359375 C-25.74723633 16.91310791 -26.69759766 17.46684082 -27.67675781 18.03735352 C-29.54392188 19.1286854 -31.40792314 20.22544846 -33.26855469 21.32788086 C-34.11836914 21.82167236 -34.96818359 22.31546387 -35.84375 22.82421875 C-36.97586914 23.49070435 -36.97586914 23.49070435 -38.13085938 24.1706543 C-38.74767578 24.44433838 -39.36449219 24.71802246 -40 25 C-40.66 24.67 -41.32 24.34 -42 24 C-31.61689789 13.66089408 -15.52845933 -0.59829441 0 0 Z " fill="#2E3D4A" transform="translate(116,16)"/>
<path d="M0 0 C3.5893484 1.56094919 6.18220473 3.75117819 9.125 6.3125 C15.02386604 11.36032338 21.24867457 15.88599966 27.59228516 20.35668945 C32.28896137 23.6852757 36.68266524 27.19025149 41 31 C38 32 38 32 34.4453125 30.55078125 C20.30564264 23.4438538 9.07955321 14.08443166 0 1 C0 0.67 0 0.34 0 0 Z " fill="#33404D" transform="translate(57,245)"/>
<path d="M0 0 C1.98 0 3.96 0 6 0 C5.01 0.495 5.01 0.495 4 1 C4.16371094 1.96035156 4.32742187 2.92070312 4.49609375 3.91015625 C5.14094818 8.42413725 5.11017662 12.88621642 5.0625 17.4375 C5.05798828 18.26443359 5.05347656 19.09136719 5.04882812 19.94335938 C5.03715811 21.96227146 5.01922718 23.98114574 5 26 C4.01 26.33 3.02 26.66 2 27 C2 26.34 2 25.68 2 25 C-0.31 25 -2.62 25 -5 25 C-5.93423645 21.98968256 -6.04449911 21.13349732 -5 18 C-3.68 18 -2.36 18 -1 18 C-0.67 16.35 -0.34 14.7 0 13 C-1.98 13 -3.96 13 -6 13 C-6.042721 11.33388095 -6.04063832 9.66617115 -6 8 C-5 7 -5 7 -1.9375 6.9375 C-0.4834375 6.9684375 -0.4834375 6.9684375 1 7 C0.67 4.69 0.34 2.38 0 0 Z " fill="#F3F3F4" transform="translate(236,175)"/>
<path d="M0 0 C2.02563021 -0.00980697 4.05028645 -0.04093243 6.07568359 -0.07226562 C7.98800781 -0.08 7.98800781 -0.08 9.93896484 -0.08789062 C11.10524414 -0.09723633 12.27152344 -0.10658203 13.47314453 -0.11621094 C14.39514648 0.00141602 15.31714844 0.11904297 16.26708984 0.24023438 C16.92708984 1.23023437 17.58708984 2.22023438 18.26708984 3.24023438 C17.48994629 3.2955835 16.71280273 3.35093262 15.91210938 3.40795898 C12.4051061 3.66018396 8.89860947 3.91887612 5.39208984 4.17773438 C4.16876953 4.26474609 2.94544922 4.35175781 1.68505859 4.44140625 C0.51845703 4.52841797 -0.64814453 4.61542969 -1.85009766 4.70507812 C-3.46827393 4.82290649 -3.46827393 4.82290649 -5.11914062 4.94311523 C-7.71105628 5.08625375 -7.71105628 5.08625375 -9.73291016 6.24023438 C-11.32553081 6.39198987 -12.92355872 6.48923763 -14.52197266 6.55664062 C-15.93349609 6.61948242 -15.93349609 6.61948242 -17.37353516 6.68359375 C-18.85080078 6.74256836 -18.85080078 6.74256836 -20.35791016 6.80273438 C-21.35048828 6.84591797 -22.34306641 6.88910156 -23.36572266 6.93359375 C-25.82130853 7.03984506 -28.27699719 7.14188401 -30.73291016 7.24023438 C-28.15661173 5.26232794 -25.91562591 3.73271282 -22.85791016 2.61523438 C-22.22111328 2.37546875 -21.58431641 2.13570312 -20.92822266 1.88867188 C-14.06338326 -0.1390209 -7.09429258 0.02084003 0 0 Z " fill="#2D3B48" transform="translate(153.73291015625,24.759765625)"/>
<path d="M0 0 C3.3 0 6.6 0 10 0 C10 5.61 10 11.22 10 17 C6.7 17 3.4 17 0 17 C0 11.39 0 5.78 0 0 Z " fill="#FDFEFF" transform="translate(188,113)"/>
<path d="M0 0 C3.3 0 6.6 0 10 0 C10 4.95 10 9.9 10 15 C6.7 15 3.4 15 0 15 C0 10.05 0 5.1 0 0 Z " fill="#FCFDFF" transform="translate(128,99)"/>
<path d="M0 0 C0.66 0 1.32 0 2 0 C0.40738069 6.22474736 -3.04412748 11.25494163 -6.4375 16.625 C-7.02337891 17.56601563 -7.60925781 18.50703125 -8.21289062 19.4765625 C-13.75714895 28.33730679 -13.75714895 28.33730679 -16 31 C-16.66 31 -17.32 31 -18 31 C-14.49542201 19.12337458 -8.65135325 8.94549926 0 0 Z " fill="#374451" transform="translate(51,64)"/>
<path d="M0 0 C1.32 0.33 2.64 0.66 4 1 C3.01 1 2.02 1 1 1 C1.16242188 1.84820312 1.32484375 2.69640625 1.4921875 3.5703125 C2.73370897 11.95535753 2.33669928 20.64562948 1 29 C4.3 29 7.6 29 11 29 C11 29.33 11 29.66 11 30 C9.20906809 30.08086147 7.41710372 30.13912702 5.625 30.1875 C4.12839844 30.23970703 4.12839844 30.23970703 2.6015625 30.29296875 C1.74304688 30.19628906 0.88453125 30.09960938 0 30 C-2.2380858 26.6428713 -2.25650054 25.48862636 -2.265625 21.5625 C-2.26820312 20.50289062 -2.27078125 19.44328125 -2.2734375 18.3515625 C-2.26570313 17.24554688 -2.25796875 16.13953125 -2.25 15 C-2.25773437 13.89398438 -2.26546875 12.78796875 -2.2734375 11.6484375 C-2.27085938 10.58882812 -2.26828125 9.52921875 -2.265625 8.4375 C-2.26336914 7.46683594 -2.26111328 6.49617187 -2.25878906 5.49609375 C-2 3 -2 3 0 0 Z " fill="#DDE0E2" transform="translate(92,175)"/>
<path d="M0 0 C6.8359375 -0.1953125 6.8359375 -0.1953125 9 0 C9.66 0.66 10.32 1.32 11 2 C10.96712417 4.72869407 10.43602229 7.2966618 10 10 C10.66 10.33 11.32 10.66 12 11 C12 11.66 12 12.32 12 13 C10.125 12.6875 10.125 12.6875 8 12 C7.34 11.01 6.68 10.02 6 9 C3.94074861 8.27617533 3.94074861 8.27617533 2 8 C2 9.65 2 11.3 2 13 C1.34 13 0.68 13 0 13 C0 8.71 0 4.42 0 0 Z " fill="#9BCDFF" transform="translate(216,215)"/>
<path d="M0 0 C0.66 0 1.32 0 2 0 C2.99 2.31 3.98 4.62 5 7 C5.66 4.69 6.32 2.38 7 0 C7.99 0.33 8.98 0.66 10 1 C11.1875 4.0625 11.1875 4.0625 12 7 C12.99 4.69 13.98 2.38 15 0 C15.66 0 16.32 0 17 0 C16.68991116 1.60463449 16.37683713 3.20869231 16.0625 4.8125 C15.88847656 5.70582031 15.71445313 6.59914062 15.53515625 7.51953125 C15 10 15 10 14 13 C13.01 13 12.02 13 11 13 C10.34 11.02 9.68 9.04 9 7 C8.34 8.98 7.68 10.96 7 13 C6.01 13 5.02 13 4 13 C3.32942113 11.2097939 2.6636531 9.41778511 2 7.625 C1.62875 6.62726563 1.2575 5.62953125 0.875 4.6015625 C0 2 0 2 0 0 Z " fill="#9DCEFF" transform="translate(147,215)"/>
<path d="M0 0 C9.83616318 0.67064749 18.65151742 5.74137911 27.375 10 C28.37358032 10.4796521 28.37358032 10.4796521 29.39233398 10.96899414 C33.80518984 13.16793889 37.31828318 15.71723083 41 19 C37.55208852 19 36.36617515 18.26146061 33.421875 16.55078125 C32.5146167 16.03435059 31.6073584 15.51791992 30.67260742 14.98583984 C29.70814697 14.4336377 28.74368652 13.88143555 27.75 13.3125 C19.85344107 8.87145504 12.32165718 5.3195066 3.60546875 2.8671875 C2.74566406 2.58101562 1.88585937 2.29484375 1 2 C0.67 1.34 0.34 0.68 0 0 Z " fill="#4A5661" transform="translate(202,13)"/>
<path d="M0 0 C0.66 0.33 1.32 0.66 2 1 C-3.90275931 5.05906311 -9.91097473 7.74126778 -16.625 10.1875 C-17.54023438 10.52974609 -18.45546875 10.87199219 -19.3984375 11.22460938 C-21.92689377 12.1654728 -24.46150511 13.08663382 -27 14 C-28.11375 14.40605469 -29.2275 14.81210937 -30.375 15.23046875 C-34.06854088 16.31324785 -37.16981571 16.13207532 -41 16 C-38.76186885 13.76186885 -37.63829407 13.46041182 -34.6328125 12.66796875 C-33.75246338 12.42925049 -32.87211426 12.19053223 -31.96508789 11.94458008 C-31.02785889 11.69474365 -30.09062988 11.44490723 -29.125 11.1875 C-19.77048382 8.60888453 -10.99294239 5.648908 -2.375 1.125 C-1.59125 0.75375 -0.8075 0.3825 0 0 Z " fill="#55606B" transform="translate(234,291)"/>
<path d="M0 0 C4.39718646 1.09929662 4.79997334 1.55450729 7.25 5.0625 C8.03117188 6.16271484 8.03117188 6.16271484 8.828125 7.28515625 C9.21484375 7.85105469 9.6015625 8.41695312 10 9 C10.33 6.03 10.66 3.06 11 0 C11.66 0 12.32 0 13 0 C13 4.29 13 8.58 13 13 C7.85139294 11.71284823 7.13538553 10.09341999 4 6 C3.67 8.31 3.34 10.62 3 13 C2.34 13 1.68 13 1 13 C0.67 8.71 0.34 4.42 0 0 Z " fill="#A5D2FF" transform="translate(187,215)"/>
<path d="M0 0 C3 1 3 1 4.38671875 3.50390625 C4.81597656 4.51324219 5.24523437 5.52257812 5.6875 6.5625 C6.34298828 8.08037109 6.34298828 8.08037109 7.01171875 9.62890625 C7.33785156 10.41136719 7.66398438 11.19382813 8 12 C3.66666667 12 -0.66666667 12 -5 12 C-4.72285156 11.46890625 -4.44570312 10.9378125 -4.16015625 10.390625 C-3.79792969 9.68421875 -3.43570313 8.9778125 -3.0625 8.25 C-2.52302734 7.20585937 -2.52302734 7.20585937 -1.97265625 6.140625 C-1.04441818 4.09775567 -0.46833422 2.18884624 0 0 Z " fill="#97CBFF" transform="translate(133,215)"/>
<path d="M0 0 C4.53786224 2.26893112 5.94678157 4.09866534 9 8 C9.33 5.36 9.66 2.72 10 0 C10.66 0 11.32 0 12 0 C12 4.29 12 8.58 12 13 C7.9915966 10.9957983 6.58590343 9.50944037 4 6 C3.67 8.31 3.34 10.62 3 13 C2.34 13 1.68 13 1 13 C0.67 8.71 0.34 4.42 0 0 Z " fill="#98CBFF" transform="translate(172,215)"/>
<path d="M0 0 C2.97 0 5.94 0 9 0 C9 0.66 9 1.32 9 2 C6.69 2 4.38 2 2 2 C2 2.99 2 3.98 2 5 C3.65 5 5.3 5 7 5 C7 5.99 7 6.98 7 8 C5.35 8 3.7 8 2 8 C2 8.99 2 9.98 2 11 C4.64 11 7.28 11 10 11 C10 11.66 10 12.32 10 13 C6.7 13 3.4 13 0 13 C0 8.71 0 4.42 0 0 Z " fill="#9FCFFF" transform="translate(112,215)"/>
<path d="M0 0 C6.0546875 -0.1953125 6.0546875 -0.1953125 8 0 C10 2 10 2 10.0625 4.375 C10.041875 5.24125 10.02125 6.1075 10 7 C10.20625 7.721875 10.4125 8.44375 10.625 9.1875 C10.74875 9.785625 10.8725 10.38375 11 11 C9 13 9 13 6.8359375 13.1953125 C5.61777344 13.16050781 5.61777344 13.16050781 4.375 13.125 C3.55773437 13.10695312 2.74046875 13.08890625 1.8984375 13.0703125 C1.27195312 13.04710937 0.64546875 13.02390625 0 13 C0 11.35 0 9.7 0 8 C0.33 8.99 0.66 9.98 1 11 C4.465 10.505 4.465 10.505 8 10 C8 9.34 8 8.68 8 8 C5.03 7.505 5.03 7.505 2 7 C2 6.67 2 6.34 2 6 C3.65 5.67 5.3 5.34 7 5 C7.33 4.01 7.66 3.02 8 2 C5.69 2 3.38 2 1 2 C0.67 3.32 0.34 4.64 0 6 C0 4.02 0 2.04 0 0 Z " fill="#96CAFF" transform="translate(98,215)"/>
<path d="M0 0 C3.3 0 6.6 0 10 0 C10 0.66 10 1.32 10 2 C7.36 2 4.72 2 2 2 C2 3.32 2 4.64 2 6 C3.65 6 5.3 6 7 6 C6.360625 6.268125 5.72125 6.53625 5.0625 6.8125 C2.66868314 7.88667752 2.66868314 7.88667752 2 11 C4.64 11 7.28 11 10 11 C10 11.66 10 12.32 10 13 C6.7 13 3.4 13 0 13 C0 8.71 0 4.42 0 0 Z " fill="#A2D0FF" transform="translate(203,215)"/>
<path d="M0 0 C2.31 0 4.62 0 7 0 C6.79375 0.5775 6.5875 1.155 6.375 1.75 C5.91338739 4.51967567 6.57055055 5.64561267 8 8 C7 9 7 9 3.4375 9.0625 C2.303125 9.041875 1.16875 9.02125 0 9 C-0.84454356 5.62182575 -1.10844919 3.32534757 0 0 Z " fill="#B2D8FF" transform="translate(99,217)"/>
<path d="M0 0 C3 1 3 1 4 3 C4.09608608 4.83128771 4.12982579 6.66619959 4.125 8.5 C4.12757813 9.4796875 4.13015625 10.459375 4.1328125 11.46875 C4 14 4 14 3 16 C2.01 16 1.02 16 0 16 C0 10.72 0 5.44 0 0 Z " fill="#F0F1F2" transform="translate(215,181)"/>
<path d="M0 0 C-13.44874715 5.74031891 -13.44874715 5.74031891 -21 5 C-18.28432704 2.28432704 -15.23593892 1.75968758 -11.625 0.8125 C-10.95210937 0.62236328 -10.27921875 0.43222656 -9.5859375 0.23632812 C-6.09905932 -0.69373485 -3.42363738 -1.37823351 0 0 Z " fill="#495561" transform="translate(214,302)"/>
<path d="M0 0 C1.98 0 3.96 0 6 0 C6 0.33 6 0.66 6 1 C8.97 1.495 8.97 1.495 12 2 C12 2.33 12 2.66 12 3 C8.7 3 5.4 3 2 3 C2 8.61 2 14.22 2 20 C1.67 20 1.34 20 1 20 C0.67 13.4 0.34 6.8 0 0 Z " fill="#B0D7FF" transform="translate(186,110)"/>
<path d="M0 0 C6.05487762 0.31050654 10.39325665 3.29617835 15 7 C15.99 8.485 15.99 8.485 17 10 C12.97683781 8.51463956 9.38707358 6.60123107 5.6875 4.4375 C4.61886719 3.81746094 3.55023438 3.19742187 2.44921875 2.55859375 C1.64097656 2.04425781 0.83273438 1.52992187 0 1 C0 0.67 0 0.34 0 0 Z " fill="#45525D" transform="translate(226,23)"/>
<path d="M0 0 C0.66 0 1.32 0 2 0 C1.38075115 4.02511753 -0.51638207 6.82648821 -3 10 C-5.75 11.375 -5.75 11.375 -8 12 C-6.59808647 9.00745382 -4.96632511 6.4045389 -3 3.75 C-2.484375 3.04359375 -1.96875 2.3371875 -1.4375 1.609375 C-0.963125 1.07828125 -0.48875 0.5471875 0 0 Z " fill="#394653" transform="translate(49,82)"/>
<path d="M0 0 C-5.445 3.96 -5.445 3.96 -11 8 C-11 5 -11 5 -9.25 2.9375 C-4.20930233 -1.40310078 -4.20930233 -1.40310078 0 0 Z " fill="#394753" transform="translate(94,45)"/>
<path d="M0 0 C0.99 1.32 1.98 2.64 3 4 C3.66 3.67 4.32 3.34 5 3 C5.66 4.98 6.32 6.96 7 9 C4.03 8.01 1.06 7.02 -2 6 C-1.34 4.02 -0.68 2.04 0 0 Z " fill="#C6E2FF" transform="translate(134,219)"/>
<path d="M0 0 C2.31 0 4.62 0 7 0 C7 1.32 7 2.64 7 4 C4.69 4 2.38 4 0 4 C0 2.68 0 1.36 0 0 Z " fill="#F2F8FF" transform="translate(218,217)"/>
<path d="M0 0 C0.66 0.33 1.32 0.66 2 1 C2 3.97 2 6.94 2 10 C1.01 10 0.02 10 -1 10 C-1.02689216 8.52093108 -1.04634621 7.04172517 -1.0625 5.5625 C-1.07410156 4.73878906 -1.08570313 3.91507813 -1.09765625 3.06640625 C-1 1 -1 1 0 0 Z " fill="#EEEFF0" transform="translate(197,183)"/>
<path d="M0 0 C0.99 0.33 1.98 0.66 3 1 C3 3.64 3 6.28 3 9 C2.01 9.33 1.02 9.66 0 10 C0 6.7 0 3.4 0 0 Z " fill="#EDEEEF" transform="translate(132,183)"/>
<path d="M0 0 C2.39763185 2.39763185 2.34280586 3.33273498 2.625 6.625 C2.69976562 7.44226563 2.77453125 8.25953125 2.8515625 9.1015625 C2.92503906 10.04128906 2.92503906 10.04128906 3 11 C0.36 11 -2.28 11 -5 11 C-5 10.67 -5 10.34 -5 10 C-3.02 10 -1.04 10 1 10 C0.67 9.34 0.34 8.68 0 8 C-0.13415472 5.3276379 -0.04318541 2.67749512 0 0 Z " fill="#CACDD1" transform="translate(246,194)"/>
<path d="M0 0 C5.75 1.75 5.75 1.75 8 4 C7.34 4.66 6.68 5.32 6 6 C3.36 4.68 0.72 3.36 -2 2 C-1.34 1.34 -0.68 0.68 0 0 Z " fill="#3D4A57" transform="translate(228,40)"/>
<path d="M0 0 C0.66 0.33 1.32 0.66 2 1 C1.07038578 2.15224028 0.1309875 3.29659176 -0.8125 4.4375 C-1.59560547 5.39462891 -1.59560547 5.39462891 -2.39453125 6.37109375 C-4 8 -4 8 -7 9 C-5.44499019 5.18315774 -2.96404505 2.80804268 0 0 Z " fill="#3F4C58" transform="translate(274,260)"/>
<path d="M0 0 C1.32 0 2.64 0 4 0 C4 1.65 4 3.3 4 5 C2.68 5 1.36 5 0 5 C0 3.35 0 1.7 0 0 Z " fill="#2C3B48" transform="translate(249,281)"/>
<path d="M0 0 C2.31 0 4.62 0 7 0 C6.67 0.99 6.34 1.98 6 3 C4.02 3 2.04 3 0 3 C0 2.01 0 1.02 0 0 Z " fill="#FCFDFF" transform="translate(100,223)"/>
<path d="M0 0 C1.10844919 3.32534757 0.84454356 5.62182575 0 9 C-1.32 9.33 -2.64 9.66 -4 10 C-2.8905928 6.51329166 -1.73662334 3.22515763 0 0 Z " fill="#D4D7DA" transform="translate(295,213)"/>
<path d="M0 0 C0.66 0 1.32 0 2 0 C3.32421875 1.6796875 3.32421875 1.6796875 4.6875 3.875 C5.14511719 4.59429687 5.60273438 5.31359375 6.07421875 6.0546875 C6.37972656 6.69664063 6.68523437 7.33859375 7 8 C6.67 8.66 6.34 9.32 6 10 C4.99421411 8.71283353 3.99553202 7.42011342 3 6.125 C2.443125 5.40570313 1.88625 4.68640625 1.3125 3.9453125 C0 2 0 2 0 0 Z " fill="#505C67" transform="translate(277,82)"/>
<path d="M0 0 C1.98 0 3.96 0 6 0 C6 0.99 6 1.98 6 3 C4.02 3 2.04 3 0 3 C0 2.01 0 1.02 0 0 Z " fill="#FBFDFF" transform="translate(100,217)"/>
<path d="M0 0 C0.99 0.33 1.98 0.66 3 1 C2.67 2.98 2.34 4.96 2 7 C1.34 7 0.68 7 0 7 C0 4.69 0 2.38 0 0 Z " fill="#CCD0D2" transform="translate(246,180)"/>
<path d="M0 0 C0.99 0.33 1.98 0.66 3 1 C2.67 2.98 2.34 4.96 2 7 C1.34 7 0.68 7 0 7 C0 4.69 0 2.38 0 0 Z " fill="#CBCED1" transform="translate(176,180)"/>
<path d="M0 0 C0.66 0.33 1.32 0.66 2 1 C1.375 2.875 1.375 2.875 0 5 C-3.125 6.25 -3.125 6.25 -6 7 C-4.02 4.69 -2.04 2.38 0 0 Z " fill="#404D59" transform="translate(80,34)"/>
<path d="M0 0 C3.67420866 0.30618405 4.78135513 0.75771784 7.3125 3.5625 C8.1478125 4.7690625 8.1478125 4.7690625 9 6 C5.06326356 4.68775452 2.77280706 3.08089673 0 0 Z " fill="#384552" transform="translate(234,27)"/>
<path d="M0 0 C0.33 0 0.66 0 1 0 C1 3.96 1 7.92 1 12 C0.01 11.67 -0.98 11.34 -2 11 C-2 10.34 -2 9.68 -2 9 C-1.34 9 -0.68 9 0 9 C0 6.03 0 3.06 0 0 Z " fill="#8EC6FF" transform="translate(183,216)"/>
</svg>
