<?xml version="1.0" encoding="UTF-8"?>
<svg version="1.1" xmlns="http://www.w3.org/2000/svg" width="512" height="512">
<path d="M0 0 C3.02366488 2.26639639 5.33092611 4.86801227 7.61328125 7.8671875 C10.52117596 11.14399423 12.77057397 11.61049527 17.12109375 11.88671875 C20.52602106 11.7852684 23.19449968 11.39500938 26.18359375 9.63671875 C26.47878906 9.02570312 26.77398437 8.4146875 27.078125 7.78515625 C28.3762331 5.26233131 29.85891975 3.8669329 31.99609375 2.01171875 C32.99576172 1.12613281 32.99576172 1.12613281 34.015625 0.22265625 C40.65377429 -4.63335927 48.33718314 -4.00738958 56.18359375 -3.36328125 C63.33831 -1.68181008 67.97451588 3.89982656 72.18359375 9.63671875 C74.48916094 14.35265164 74.8846981 19.66411178 75.62109375 24.83203125 C76.39084875 28.67011523 77.27458196 30.88812081 80.30859375 33.38671875 C84.97399427 35.41515376 89.32435499 35.256465 94.18359375 33.63671875 C103.01047688 32.82825048 110.15864562 33.59129267 117.1875 39.25 C123.39782179 45.09729672 125.7837246 50.91826283 126.49609375 59.32421875 C126.42632549 65.46382533 123.79671061 71.21704345 120.43359375 76.26171875 C118.65764744 79.63601673 118.339994 82.96340645 119.18359375 86.63671875 C121.94919863 91.90421558 124.647498 93.71927603 130.05859375 96.01171875 C137.22865065 99.27536907 140.92492471 102.92125181 144.296875 109.9609375 C146.64180693 117.03705369 146.23938226 125.35636646 143.18359375 132.13671875 C139.27507624 138.82608626 133.71324074 141.96765078 126.87109375 145.19921875 C123.94533141 146.61940446 122.28076649 147.53097194 120.05859375 149.94921875 C118.39011643 155.07382767 118.23559889 158.59965837 120.49609375 163.45703125 C121.55413025 165.36454898 122.64529088 167.25418445 123.7734375 169.12109375 C126.7256997 174.38773324 126.96363659 180.06203423 125.6875 185.91015625 C123.21682091 194.08991867 119.49442954 199.29835755 112.1484375 203.69140625 C105.06766191 207.0980617 96.38251024 205.97567176 88.80859375 205.01171875 C84.77321139 204.57055155 81.84404648 204.62346975 78.18359375 206.63671875 C76.41616197 210.08192997 75.81027999 213.49966261 75.24731445 217.30932617 C73.968922 225.77457237 72.09095313 232.45407489 65.33203125 238.21484375 C58.69574559 242.81529676 51.33801591 244.36975593 43.3828125 243.17578125 C36.99624414 241.61033465 32.57098245 238.49841974 28.18359375 233.63671875 C24.3699323 229.64145437 22.47605432 227.85298862 16.87109375 227.32421875 C11.88969791 227.74637094 9.00222336 229.48924105 5.7578125 233.3203125 C5.27957031 233.91972656 4.80132812 234.51914062 4.30859375 235.13671875 C-0.20535043 240.57211407 -5.25367265 242.64462116 -12.19140625 243.57421875 C-19.90672309 243.99039767 -26.14425889 242.33388307 -32.19140625 237.44921875 C-38.89076722 230.95245942 -40.06499871 224.70000564 -41.26171875 215.640625 C-42.13022222 210.93725057 -43.76926066 208.18972575 -47.62890625 205.26171875 C-51.83607632 204.05967016 -55.69834082 204.26403027 -59.81640625 205.63671875 C-68.57017051 206.4961346 -75.56314444 205.85328567 -82.81640625 200.63671875 C-89.0629689 195.06510249 -91.91464638 188.92305667 -92.44140625 180.63671875 C-92.34444782 174.17779574 -90.33438807 169.45337124 -87.21923828 163.92578125 C-84.76299757 159.41174291 -84.56267483 156.59739644 -85.81640625 151.63671875 C-86.33203125 150.79109375 -86.84765625 149.94546875 -87.37890625 149.07421875 C-89.14393571 146.08134271 -89.05473553 144.05277173 -88.81640625 140.63671875 C-89.50347656 140.31058594 -90.19054687 139.98445312 -90.8984375 139.6484375 C-91.79949219 139.21144531 -92.70054688 138.77445313 -93.62890625 138.32421875 C-94.96888672 137.68033203 -94.96888672 137.68033203 -96.3359375 137.0234375 C-98.62769835 135.74221687 -99.98823923 134.46488577 -101.81640625 132.63671875 C-102.80640625 132.47171875 -103.79640625 132.30671875 -104.81640625 132.13671875 C-107.81640625 131.63671875 -107.81640625 131.63671875 -109.62890625 130.38671875 C-112.45312463 126.22471272 -112.34907745 120.50967382 -111.81640625 115.63671875 C-110.69140625 112.76171875 -110.69140625 112.76171875 -108.81640625 110.63671875 C-106.82069302 109.95732701 -104.82045852 109.29110316 -102.81640625 108.63671875 C-101.46253689 106.98669047 -100.12962483 105.31928005 -98.81640625 103.63671875 C-93.64399246 100.63671875 -93.64399246 100.63671875 -90.81640625 100.63671875 C-90.94015625 99.83234375 -91.06390625 99.02796875 -91.19140625 98.19921875 C-90.78243557 94.31399728 -90.0310179 93.29611464 -87.75390625 90.26171875 C-85.4806408 87.01651083 -84.83409797 85.90651742 -84.56640625 81.82421875 C-85.33910632 78.17014178 -87.08928311 75.20385558 -88.87890625 71.94921875 C-92.29071541 65.4140384 -93.02043235 59.90648243 -91.81640625 52.63671875 C-89.13284468 44.10346377 -84.17997488 39.25485993 -76.69140625 34.76171875 C-70.76978217 32.4633715 -62.76782383 32.65291289 -56.81640625 34.63671875 C-52.56480408 35.03781329 -50.31570895 34.90050131 -46.50390625 32.88671875 C-42.10111867 29.20066403 -41.59107522 25.98182699 -40.94140625 20.38671875 C-39.70277061 11.94319487 -37.51473365 6.18760878 -30.64453125 0.890625 C-21.46903988 -5.402821 -9.67188268 -5.54267169 0 0 Z " fill="#F4D166" transform="translate(120.81640625,26.36328125)"/>
<path d="M0 0 C2.75762932 4.13644399 1.82698433 7.32031883 1 12 C0.63261719 13.45599609 0.63261719 13.45599609 0.2578125 14.94140625 C-3.99027434 32.39902027 -4.07737662 52.71225208 1 70 C1.32871094 71.19753906 1.65742188 72.39507812 1.99609375 73.62890625 C10.83276763 102.95198672 30.75832892 125.62928357 57.375 140.25 C64.65293475 144.09167841 72.06061112 146.78903094 80 149 C81.09828125 149.3196875 82.1965625 149.639375 83.328125 149.96875 C110.29943027 156.61920883 141.1239581 151.84194355 164.9921875 137.75 C167.67504243 136.74784407 169.29730954 137.16771453 172 138 C173.875 139.625 173.875 139.625 175 142 C173.43764445 162.01303063 159.05252046 180.70990723 146 195 C145.28457031 195.79792969 144.56914062 196.59585938 143.83203125 197.41796875 C128.51347406 213.65621418 108.29777604 224.08532024 87 230 C85.82308594 230.3403125 84.64617187 230.680625 83.43359375 231.03125 C63.63201169 235.72624641 39.42214905 234.92261298 20 229 C18.94184082 228.69449219 18.94184082 228.69449219 17.86230469 228.3828125 C2.11572561 223.75104526 -12.74198499 215.96542995 -25 205 C-25.82628906 204.29230469 -26.65257812 203.58460938 -27.50390625 202.85546875 C-48.49108049 184.55977945 -61.91775976 161.09361563 -68 134 C-68.24492187 132.97648438 -68.48984375 131.95296875 -68.7421875 130.8984375 C-75.10597632 98.55644225 -66.90513903 64.44132535 -48.86474609 37.29150391 C-39.12542803 23.14999731 -26.5857421 11.01959539 -12 2 C-11.12988281 1.42507813 -10.25976562 0.85015625 -9.36328125 0.2578125 C-5.93805442 -1.56520079 -3.67130874 -0.96977967 0 0 Z " fill="#E4E5E6" transform="translate(328,256)"/>
<path d="M0 0 C3.02366488 2.26639639 5.33092611 4.86801227 7.61328125 7.8671875 C10.52117596 11.14399423 12.77057397 11.61049527 17.12109375 11.88671875 C20.52602106 11.7852684 23.19449968 11.39500938 26.18359375 9.63671875 C26.47878906 9.02570312 26.77398437 8.4146875 27.078125 7.78515625 C28.3762331 5.26233131 29.85891975 3.8669329 31.99609375 2.01171875 C32.99576172 1.12613281 32.99576172 1.12613281 34.015625 0.22265625 C40.65377429 -4.63335927 48.33718314 -4.00738958 56.18359375 -3.36328125 C63.33831 -1.68181008 67.97451588 3.89982656 72.18359375 9.63671875 C74.48916094 14.35265164 74.8846981 19.66411178 75.62109375 24.83203125 C76.39084875 28.67011523 77.27458196 30.88812081 80.30859375 33.38671875 C84.97399427 35.41515376 89.32435499 35.256465 94.18359375 33.63671875 C103.01047688 32.82825048 110.15864562 33.59129267 117.1875 39.25 C123.39782179 45.09729672 125.7837246 50.91826283 126.49609375 59.32421875 C126.42632549 65.46382533 123.79671061 71.21704345 120.43359375 76.26171875 C118.65764744 79.63601673 118.339994 82.96340645 119.18359375 86.63671875 C121.94919863 91.90421558 124.647498 93.71927603 130.05859375 96.01171875 C137.22865065 99.27536907 140.92492471 102.92125181 144.296875 109.9609375 C146.64180693 117.03705369 146.23938226 125.35636646 143.18359375 132.13671875 C139.27507624 138.82608626 133.71324074 141.96765078 126.87109375 145.19921875 C123.94533141 146.61940446 122.28076649 147.53097194 120.05859375 149.94921875 C118.39011643 155.07382767 118.23559889 158.59965837 120.49609375 163.45703125 C121.55413025 165.36454898 122.64529088 167.25418445 123.7734375 169.12109375 C126.7256997 174.38773324 126.96363659 180.06203423 125.6875 185.91015625 C123.21682091 194.08991867 119.49442954 199.29835755 112.1484375 203.69140625 C105.06766191 207.0980617 96.38251024 205.97567176 88.80859375 205.01171875 C84.77321139 204.57055155 81.84404648 204.62346975 78.18359375 206.63671875 C76.41616197 210.08192997 75.81027999 213.49966261 75.24731445 217.30932617 C73.968922 225.77457237 72.09095313 232.45407489 65.33203125 238.21484375 C58.69574559 242.81529676 51.33801591 244.36975593 43.3828125 243.17578125 C36.99624414 241.61033465 32.57098245 238.49841974 28.18359375 233.63671875 C24.3699323 229.64145437 22.47605432 227.85298862 16.87109375 227.32421875 C11.88969791 227.74637094 9.00222336 229.48924105 5.7578125 233.3203125 C5.27957031 233.91972656 4.80132812 234.51914062 4.30859375 235.13671875 C-0.20535043 240.57211407 -5.25367265 242.64462116 -12.19140625 243.57421875 C-19.90672309 243.99039767 -26.14425889 242.33388307 -32.19140625 237.44921875 C-38.89076722 230.95245942 -40.06499871 224.70000564 -41.26171875 215.640625 C-42.13022222 210.93725057 -43.76926066 208.18972575 -47.62890625 205.26171875 C-51.83607632 204.05967016 -55.69834082 204.26403027 -59.81640625 205.63671875 C-68.57017051 206.4961346 -75.56314444 205.85328567 -82.81640625 200.63671875 C-89.0629689 195.06510249 -91.91464638 188.92305667 -92.44140625 180.63671875 C-92.34444782 174.17779574 -90.33438807 169.45337124 -87.21923828 163.92578125 C-84.76299757 159.41174291 -84.56267483 156.59739644 -85.81640625 151.63671875 C-86.33203125 150.79109375 -86.84765625 149.94546875 -87.37890625 149.07421875 C-89.19668332 145.99190112 -89.35222647 144.15782308 -88.81640625 140.63671875 C-87.19140625 138.69921875 -87.19140625 138.69921875 -84.81640625 137.63671875 C-81.03254711 137.63671875 -79.39622216 138.09003518 -76.62890625 140.69921875 C-72.12621985 147.99667603 -70.2930055 155.09738391 -71.81640625 163.63671875 C-73.46992222 167.08053789 -75.36420149 170.29936353 -77.30859375 173.5859375 C-79.16329287 177.33858003 -79.425203 179.72332934 -78.53515625 183.765625 C-77.1355122 187.40926358 -75.24254525 189.77105824 -71.91796875 191.7890625 C-69.0443903 192.94810808 -66.64492979 192.34528453 -63.63671875 191.953125 C-54.32100934 190.90801079 -45.86473224 190.134504 -37.90625 195.72265625 C-30.01348048 202.95154796 -27.68583042 211.25963749 -26.671875 221.578125 C-25.5999326 225.41068619 -24.09924749 226.50010692 -20.81640625 228.63671875 C-17.598109 230.24586738 -14.30685519 230.09993721 -10.81640625 229.63671875 C-7.12484341 227.75474554 -5.06677681 225.95475703 -2.50390625 222.69921875 C1.64193637 217.59164461 6.2678999 214.99687427 12.8203125 214.1875 C22.17358786 213.91760449 27.97918551 214.7071901 34.8125 221.09375 C36.59569044 222.86679427 38.35408004 224.66526694 40.08203125 226.4921875 C42.93946417 229.40804377 44.52586239 229.80664686 48.49609375 229.88671875 C52.559491 229.81497337 55.07990361 229.46655388 58.18359375 226.63671875 C60.79706374 222.18414024 61.39237788 218.30712849 61.99609375 213.19921875 C63.19004409 204.73479036 66.76148754 200.36031089 73.37109375 195.19921875 C77.81785456 191.98036034 81.22389084 191.49942212 86.68359375 191.51171875 C87.82828125 191.50914062 88.97296875 191.5065625 90.15234375 191.50390625 C93.18359375 191.63671875 93.18359375 191.63671875 96.18359375 192.63671875 C101.39538775 193.03006169 104.8225618 192.61014963 109.18359375 189.63671875 C111.69590342 186.03574156 112.87280073 182.53072201 112.75390625 178.09765625 C111.96483192 174.69274647 110.33328415 171.81178943 108.68359375 168.76171875 C105.55829294 162.92859845 103.76228544 158.26202992 105.18359375 151.63671875 C108.08631649 142.53471376 112.89385247 137.1638469 121.18359375 132.63671875 C122.61921606 131.9867222 124.0566614 131.34073372 125.49609375 130.69921875 C128.41471581 129.26571086 129.20847593 128.60172819 131.18359375 125.82421875 C132.35023692 122.10554365 132.66820602 119.51361692 132.18359375 115.63671875 C129.38755147 110.37358033 126.65077883 108.49009283 121.24609375 106.13671875 C113.29767943 102.66831977 109.1650697 98.08374167 105.92578125 90.0390625 C103.8644104 83.36673054 104.45753359 78.62485663 107.69824219 72.40087891 C108.35380606 71.18558433 109.01200154 69.97170555 109.67285156 68.75927734 C112.94978366 62.58664878 113.08372474 58.48273299 111.49609375 51.69921875 C109.77780462 48.99905012 108.19893886 48.54132228 105.18359375 47.63671875 C104.52359375 47.30671875 103.86359375 46.97671875 103.18359375 46.63671875 C101.96671875 46.78109375 100.74984375 46.92546875 99.49609375 47.07421875 C79.61030561 49.42318725 79.61030561 49.42318725 72.89453125 44.26171875 C66.49595466 38.18453185 62.16855969 33.2517415 61.74609375 24.13671875 C61.29031345 18.38152684 59.95908507 15.56887107 56.05859375 11.32421875 C52.01029197 8.94804162 48.75748187 8.49516208 44.18359375 9.63671875 C41.13241073 11.60504199 38.71437305 14.04877606 36.18359375 16.63671875 C30.70421707 21.77289474 25.63090828 25.68578898 17.80859375 26.01171875 C6.88954359 25.54826161 0.71729698 20.30528267 -6.62890625 12.76171875 C-9.44238988 10.02862037 -11.25161756 9.6900007 -15.12890625 9.32421875 C-19.51843205 9.69621246 -21.46416968 10.83019511 -24.81640625 13.63671875 C-26.90991334 16.92756498 -27.24609939 20.05162698 -27.69140625 23.88671875 C-29.0433956 33.04337391 -31.63951871 38.11432676 -38.62109375 44.19140625 C-43.42890921 47.35669401 -47.96678384 47.8941215 -53.62890625 47.82421875 C-54.85222656 47.81261719 -56.07554688 47.80101562 -57.3359375 47.7890625 C-60.23822897 47.66202617 -62.95711875 47.35760311 -65.81640625 46.88671875 C-69.22977303 46.4426004 -69.84788322 46.65187433 -73.19140625 48.26171875 C-77.48941458 52.13277128 -77.48941458 52.13277128 -78.98046875 57.5703125 C-78.75321779 62.47368899 -77.33114555 65.67742851 -74.75390625 69.82421875 C-70.96371647 76.32690579 -70.78609124 82.27351926 -71.81640625 89.63671875 C-73.4132517 95.21680646 -76.96699971 100.36785952 -81.81640625 103.63671875 C-85.14503336 104.22412353 -86.79158668 104.25161049 -89.69140625 102.51171875 C-91.4622137 99.56037301 -91.3871346 98.06108884 -90.81640625 94.63671875 C-89.84045322 93.14797684 -88.81407386 91.69171226 -87.75390625 90.26171875 C-85.4806408 87.01651083 -84.83409797 85.90651742 -84.56640625 81.82421875 C-85.33910632 78.17014178 -87.08928311 75.20385558 -88.87890625 71.94921875 C-92.29071541 65.4140384 -93.02043235 59.90648243 -91.81640625 52.63671875 C-89.13284468 44.10346377 -84.17997488 39.25485993 -76.69140625 34.76171875 C-70.76978217 32.4633715 -62.76782383 32.65291289 -56.81640625 34.63671875 C-52.56480408 35.03781329 -50.31570895 34.90050131 -46.50390625 32.88671875 C-42.10111867 29.20066403 -41.59107522 25.98182699 -40.94140625 20.38671875 C-39.70277061 11.94319487 -37.51473365 6.18760878 -30.64453125 0.890625 C-21.46903988 -5.402821 -9.67188268 -5.54267169 0 0 Z " fill="#020201" transform="translate(120.81640625,26.36328125)"/>
<path d="M0 0 C2.75762932 4.13644399 1.82698433 7.32031883 1 12 C0.63261719 13.45599609 0.63261719 13.45599609 0.2578125 14.94140625 C-3.99027434 32.39902027 -4.07737662 52.71225208 1 70 C1.32871094 71.19753906 1.65742188 72.39507812 1.99609375 73.62890625 C10.83276763 102.95198672 30.75832892 125.62928357 57.375 140.25 C64.65293475 144.09167841 72.06061112 146.78903094 80 149 C81.09828125 149.3196875 82.1965625 149.639375 83.328125 149.96875 C110.29943027 156.61920883 141.1239581 151.84194355 164.9921875 137.75 C167.67504243 136.74784407 169.29730954 137.16771453 172 138 C173.875 139.625 173.875 139.625 175 142 C173.43764445 162.01303063 159.05252046 180.70990723 146 195 C145.28457031 195.79792969 144.56914062 196.59585938 143.83203125 197.41796875 C128.51347406 213.65621418 108.29777604 224.08532024 87 230 C85.82308594 230.3403125 84.64617187 230.680625 83.43359375 231.03125 C63.63201169 235.72624641 39.42214905 234.92261298 20 229 C18.94184082 228.69449219 18.94184082 228.69449219 17.86230469 228.3828125 C2.11572561 223.75104526 -12.74198499 215.96542995 -25 205 C-25.82628906 204.29230469 -26.65257812 203.58460938 -27.50390625 202.85546875 C-48.49108049 184.55977945 -61.91775976 161.09361563 -68 134 C-68.24492187 132.97648438 -68.48984375 131.95296875 -68.7421875 130.8984375 C-75.10597632 98.55644225 -66.90513903 64.44132535 -48.86474609 37.29150391 C-39.12542803 23.14999731 -26.5857421 11.01959539 -12 2 C-11.12988281 1.42507813 -10.25976562 0.85015625 -9.36328125 0.2578125 C-5.93805442 -1.56520079 -3.67130874 -0.96977967 0 0 Z M-24 27.5625 C-31.52048334 35.09480552 -37.75618666 42.74339815 -43 52 C-43.33177246 52.58346191 -43.66354492 53.16692383 -44.00537109 53.76806641 C-53.09805307 70.10028987 -57.37470213 86.79070586 -57.37060547 105.40185547 C-57.37495204 107.60073973 -57.41130461 109.79756604 -57.44921875 111.99609375 C-57.68220765 141.24684748 -44.09903301 168.29496599 -24 189 C-8.72288874 204.328986 10.93096221 214.45790221 32 219 C32.75240967 219.17732666 33.50481934 219.35465332 34.2800293 219.53735352 C40.56427818 220.93860046 46.5121278 221.27341279 52.9375 221.1875 C53.84951172 221.18685547 54.76152344 221.18621094 55.70117188 221.18554688 C66.32870775 221.11795124 76.01724969 220.11853022 86.1875 216.9375 C87.18491211 216.62804443 88.18232422 216.31858887 89.20996094 215.99975586 C107.12557289 210.23869666 121.30284067 200.86917906 135 188 C135.88751953 187.2265625 135.88751953 187.2265625 136.79296875 186.4375 C145.10327079 178.85755704 151.87969504 167.96653035 157 158 C156.67 157.34 156.34 156.68 156 156 C154.92105469 156.39832031 153.84210938 156.79664063 152.73046875 157.20703125 C120.69283034 168.68028684 86.21261714 167.8863872 55.1875 153.3125 C24.4066855 138.29056586 2.13967358 112.15730358 -9.22827148 79.97949219 C-15.71774908 60.74378888 -16.525865 40.07160581 -14 20 C-18.07069642 20 -21.26162743 24.83143677 -24 27.5625 Z " fill="#020202" transform="translate(328,256)"/>
<path d="M0 0 C3.43380288 2.28920192 5.58509938 4.91386659 8.20703125 8.0625 C11.91687265 12.07139179 16.52760041 14.47881909 22 15 C22.64582031 15.07476562 23.29164063 15.14953125 23.95703125 15.2265625 C30.61528701 15.66966884 35.54629304 13.76861942 41 10 C43.78919841 7.47290017 46.39872908 4.85832143 48.96875 2.109375 C51.64437471 -0.66915835 53.36365417 -1.23788531 57.125 -1.5 C62.3039578 -1.47485943 64.81537947 0.718127 68.46875 4.17578125 C71.09387049 7.30315693 71.11907047 10.26917038 71.3125 14.1875 C72.10576576 23.04174572 75.25083587 27.88644418 82 33.5546875 C86.52652701 36.82581054 89.53422669 37.25089042 95.1875 37.1875 C95.85587891 37.18395508 96.52425781 37.18041016 97.21289062 37.17675781 C100.87815171 37.13240567 104.38874406 36.85499452 108 36.25 C112.80615359 35.615225 115.174937 37.09295212 119 40 C121.99501309 43.3814664 122.67551112 46.77273769 122.5703125 51.28125 C121.82476273 54.83537766 120.21869259 57.77728216 118.5 60.9375 C115.36401625 66.75247656 113.58075441 71.38430401 115 78 C117.11222371 84.62325424 120.17651047 90.70132025 126.53125 94.02734375 C128.51318142 95.00248566 130.50890136 95.94163956 132.51171875 96.87304688 C137.11142485 99.14535678 139.53775598 101.31618243 142 106 C142.6506249 111.20499921 141.910372 114.634442 139 119 C135.84660096 121.49338528 132.53191545 123.25026569 128.9375 125 C122.10151634 128.38543953 118.91748257 132.03522543 116 139 C114.04598252 144.86205243 114.00616274 149.78125832 116.5625 155.48828125 C117.19846645 156.70572619 117.84450414 157.91795788 118.5 159.125 C121.35272991 164.4092988 123.16612553 167.95734954 122 174 C120.55235572 177.95102915 118.70550062 180.51398846 115.1875 182.9375 C110.50921741 184.49692753 106.67419867 184.55806622 102 183 C94.33675963 182.36052303 87.25776609 182.07338152 81 187 C73.66949849 193.96688537 71.85187732 199.93973804 70.66015625 209.84375 C69.7595166 214.14976679 68.2193646 216.95995373 64.875 219.8125 C60.77674578 221.50525718 57.35468803 222.02119987 53 221 C49.94582988 219.03539519 47.53353721 216.58534779 45 214 C43.78463917 212.8806552 42.55613506 211.77534492 41.3125 210.6875 C40.79300781 210.21699219 40.27351562 209.74648437 39.73828125 209.26171875 C33.36968926 204.63912276 25.47662998 205.1325881 18 206 C11.75276991 208.29173845 7.25903796 212.16253726 3.3515625 217.484375 C0.63032475 220.53593641 -1.85557493 220.98602338 -5.875 221.375 C-10.20585221 221.25402647 -12.69012935 219.84802823 -16 217 C-18.68471041 213.25178112 -19.39634169 210.36804634 -19.8125 205.8125 C-20.90991114 198.05160841 -23.30925143 192.44239913 -29.08984375 187.05078125 C-37.5029263 181.04543614 -47.29632729 182.21578706 -57.0625 183.75 C-61 184 -61 184 -64.375 182.3125 C-68.78106981 178.43096231 -70.79486598 175.59551321 -71.34765625 169.6796875 C-70.88430184 166.10821418 -69.39546361 163.77576596 -67.5625 160.6875 C-63.79378679 154.22038813 -62.72169914 149.38797503 -64 142 C-65.22308253 137.48873077 -66.46179415 133.51213456 -69.84375 130.1875 C-72.55556114 128.69403879 -73.75326621 128.95647262 -76.75 129.5625 C-82.15661368 130.30521059 -85.5877641 129.13849574 -90 126 C-90.50660156 125.46890625 -91.01320313 124.9378125 -91.53515625 124.390625 C-93.0355687 122.70634616 -93.0355687 122.70634616 -96 122.5 C-99 122 -99 122 -100.8125 120.75 C-103.63671838 116.58799397 -103.5326712 110.87295507 -103 106 C-101.875 103.125 -101.875 103.125 -100 101 C-98.00428677 100.32060826 -96.00405227 99.65438441 -94 99 C-92.64613064 97.34997172 -91.31321858 95.6825613 -90 94 C-85.02304147 90.88940092 -85.02304147 90.88940092 -81.6875 91.25 C-80 92 -80 92 -79 93 C-76.2587435 93.7555432 -76.2587435 93.7555432 -73 93 C-67.84418201 88.59295226 -64.53422628 83.70176264 -63.55859375 76.94140625 C-63.23939024 68.03459857 -65.05698558 62.64924671 -69.46875 55.15625 C-71.13239936 51.7270952 -71.43142196 49.75652776 -71 46 C-68.53614032 41.26180831 -65.84955629 38.28752655 -61 36 C-58.8290253 35.97761882 -56.83096547 36.27712547 -54.6875 36.62109375 C-45.8037574 37.87359816 -36.61534137 38.31193565 -29 33 C-23.63748094 28.33437219 -20.4674536 22.5682965 -19.7421875 15.48046875 C-19.65324219 14.19076172 -19.65324219 14.19076172 -19.5625 12.875 C-19.20119271 8.26301876 -18.11931021 5.55254774 -15 2 C-10.24177426 -1.85802087 -5.71138064 -1.90379355 0 0 Z M2 21 C0.87851563 21.26683594 -0.24296875 21.53367187 -1.3984375 21.80859375 C-13.70087928 25.15974315 -24.3198786 31.79929338 -34 40 C-34.72445312 40.56847656 -35.44890625 41.13695313 -36.1953125 41.72265625 C-51.47673823 54.26194461 -63.19013912 76.00516288 -65.75 95.5625 C-67.65912379 124.01310084 -62.43345032 149.17648077 -43.38842773 171.27758789 C-30.52689256 185.6453705 -14.5136243 194.98150047 4 200 C4.88429688 200.24492187 5.76859375 200.48984375 6.6796875 200.7421875 C30.62419196 206.18751094 56.50330271 199.69472864 77 187 C99.11833813 171.5461393 111.70035509 150.05940045 117 124 C120.9010383 101.16164287 115.34674548 78.36809381 103 59 C100.21565709 55.11280013 97.22352561 51.52867863 94 48 C92.95392578 46.83210938 92.95392578 46.83210938 91.88671875 45.640625 C75.75604657 28.5368044 52.33316089 18.40738755 28.91381836 17.71484375 C19.65168121 17.59779993 10.99159086 18.84983697 2 21 Z " fill="#F8E4B2" transform="translate(112,36)"/>
<path d="M0 0 C19.63480636 16.72594616 32.91472621 38.64460187 35.375 64.6875 C37.06867728 87.37251087 30.39522446 112.65524553 15.5078125 130.1796875 C12.58235456 133.47006352 9.509 136.59680224 6.375 139.6875 C5.24771484 140.83025391 5.24771484 140.83025391 4.09765625 141.99609375 C-13.58045974 158.88412634 -38.45232959 165.32484676 -62.28515625 164.9609375 C-86.78897573 164.06828258 -108.78486677 152.09325602 -125.625 134.6875 C-143.66467424 114.12520465 -149.28133537 90.37445734 -148.625 63.6875 C-148.61533203 62.264375 -148.61533203 62.264375 -148.60546875 60.8125 C-147.60722448 39.51662228 -134.04936954 18.35340512 -118.9375 4.1640625 C-85.22729211 -24.54841108 -35.35929084 -28.17005743 0 0 Z M-107.625 10.6875 C-108.39070313 11.27917969 -109.15640625 11.87085937 -109.9453125 12.48046875 C-124.50715731 24.37856146 -134.1923203 43.18473527 -136.625 61.6875 C-138.78275219 87.44624554 -131.59714006 108.83048417 -115.0234375 128.59765625 C-102.16090591 142.50566455 -82.03285748 151.87146108 -63.2265625 153 C-48.01430808 153.56242767 -33.08128247 151.05077777 -19.625 143.6875 C-18.78839844 143.24664062 -17.95179688 142.80578125 -17.08984375 142.3515625 C-10.46467906 138.64474702 -5.0239616 133.99766289 0.375 128.6875 C1.07625 127.99914062 1.7775 127.31078125 2.5 126.6015625 C17.55499457 110.78205649 24.24097009 89.28299616 23.71484375 67.75390625 C22.25268916 46.23785916 11.5021085 26.86325169 -3.86328125 12.0390625 C-12.11239406 5.01506546 -21.56661547 0.50376942 -31.625 -3.3125 C-32.90503906 -3.8384375 -32.90503906 -3.8384375 -34.2109375 -4.375 C-58.50804416 -13.81076958 -88.25862928 -5.24489764 -107.625 10.6875 Z " fill="#050403" transform="translate(194.625,73.3125)"/>
<path d="M0 0 C3.58162953 0.68806242 6.38334271 2.16696498 9.56640625 3.921875 C11.23316406 4.83211426 11.23316406 4.83211426 12.93359375 5.76074219 C13.81893799 6.24673889 13.81893799 6.24673889 14.72216797 6.74255371 C62.74530867 33.03168745 113.26993107 51.61351827 167 62 C167 62.99 167 63.98 167 65 C156.55435509 70.59786556 146.42816393 74.81934596 135 78 C133.78570312 78.3609375 132.57140625 78.721875 131.3203125 79.09375 C126.51678044 80.40483169 121.96638389 80.76144008 117 81 C116.24267578 81.03931641 115.48535156 81.07863281 114.70507812 81.11914062 C94.03659968 82.05934126 75.48842968 78.2754805 57 69 C56.03191406 68.53980469 55.06382812 68.07960938 54.06640625 67.60546875 C28.93687072 54.9495198 10.37895389 31.38849932 1.5 5 C0.98703277 3.33727862 0.48137404 1.67214139 0 0 Z " fill="#DBDBDB" transform="translate(275,396)"/>
<path d="M0 0 C3.5 0.4375 3.5 0.4375 5.19470215 1.53642273 C7.17114588 4.41497819 6.87909227 6.82844165 6.88476562 10.29223633 C6.8901384 10.98529373 6.89551117 11.67835114 6.90104675 12.39241028 C6.91082643 13.89671351 6.91376831 15.40107317 6.91069031 16.90540504 C6.90621284 19.28931693 6.92021102 21.67248615 6.93908691 24.05632019 C6.97588988 29.12086792 6.98957519 34.18533825 7 39.25 C7.0120883 45.10949005 7.03371517 50.96861932 7.08000183 56.82794762 C7.09354268 59.17115432 7.0894058 61.51390166 7.08459473 63.85713196 C7.09394036 65.30295387 7.10411044 66.74877076 7.11523438 68.19458008 C7.11728882 69.45128006 7.11934326 70.70798004 7.12145996 72.00276184 C7.536872 75.77206345 8.65359651 78.15525519 10.5 81.4375 C10.83 82.4275 11.16 83.4175 11.5 84.4375 C16.44501966 87.55103089 21.82323276 88.68933162 27.59716797 88.66455078 C28.77793915 88.66439972 29.95871033 88.66424866 31.17526245 88.66409302 C32.43484772 88.65377045 33.69443298 88.64344788 34.9921875 88.6328125 C36.94380295 88.62856766 36.94380295 88.62856766 38.93484497 88.62423706 C42.3773582 88.61663675 45.81970003 88.59701973 49.262146 88.5748291 C52.78151125 88.55429261 56.30090447 88.54521873 59.8203125 88.53515625 C66.71361163 88.51377002 73.60679757 88.4796781 80.5 88.4375 C78.28160395 86.04021379 76.0591252 83.64674876 73.8359375 81.25390625 C73.21323975 80.58089478 72.59054199 79.9078833 71.94897461 79.21447754 C67.79404387 74.74758643 63.53703636 70.5195196 58.9765625 66.46484375 C56.93787673 63.66569582 57.09547923 61.82199047 57.5 58.4375 C59.5 55.4375 59.5 55.4375 62.25 54.5 C66.57304717 54.41686448 68.07243811 55.8529215 71.5 58.4375 C73.34735718 60.3014254 75.08770434 62.15650642 76.8125 64.125 C83.84684407 71.95518798 91.31013434 79.34026776 98.78930664 86.74267578 C99.35383545 87.30196777 99.91836426 87.86125977 100.5 88.4375 C101.06904053 88.86144043 101.63808105 89.28538086 102.22436523 89.72216797 C103.5 91.4375 103.5 91.4375 104.14575195 94.62182617 C103.20297066 100.19261209 100.1585846 102.67696357 96.16796875 106.48828125 C95.42041824 107.2282988 94.67286774 107.96831635 93.90266418 108.73075867 C91.51353757 111.08738545 89.10093613 113.41830192 86.6875 115.75 C85.07332863 117.33762729 83.46067952 118.9268039 81.84960938 120.51757812 C78.89583563 123.4210752 75.93927484 126.321369 72.96166992 129.20043945 C72.36432541 129.77889114 71.7669809 130.35734283 71.15153503 130.95332336 C69.5 132.4375 69.5 132.4375 66.5 134.4375 C60.04716981 133.98466981 60.04716981 133.98466981 57.5 131.4375 C56.97828112 127.26591246 56.96676547 125.19055196 59.42773438 121.71508789 C60.30751953 120.87196045 61.18730469 120.02883301 62.09375 119.16015625 C62.55986694 118.70394394 63.02598389 118.24773163 63.50622559 117.7776947 C64.98845339 116.33443291 66.4931636 114.91750493 68 113.5 C69.01330956 112.52182757 70.02504758 111.54202435 71.03515625 110.56054688 C73.5084459 108.16970022 75.99655482 105.79668637 78.5 103.4375 C77.78527023 103.43385437 77.07054047 103.43020874 76.33415222 103.42645264 C69.55318994 103.38837001 62.77261587 103.3312906 55.99199963 103.25359726 C52.50710022 103.21431731 49.0224461 103.18203481 45.53735352 103.16650391 C41.51799237 103.14827006 37.4995442 103.09823539 33.48046875 103.046875 C32.24668991 103.04564636 31.01291107 103.04441772 29.741745 103.04315186 C18.91727681 102.8623277 10.08849307 100.816928 2.1484375 93.15234375 C1.60445312 92.58644531 1.06046875 92.02054687 0.5 91.4375 C-0.263125 90.65375 -1.02625 89.87 -1.8125 89.0625 C-7.46677566 80.26696009 -6.94287281 70.76038185 -6.8984375 60.73046875 C-6.90046155 59.11623503 -6.90337573 57.50200221 -6.90713501 55.88777161 C-6.91153649 52.52152716 -6.90519375 49.15552298 -6.89111328 45.78930664 C-6.87395338 41.47726868 -6.8839189 37.16578819 -6.90183067 32.85377026 C-6.91266889 29.52775362 -6.90922323 26.20186938 -6.9014473 22.87584877 C-6.89944895 21.28544358 -6.90189172 19.6950263 -6.90888596 18.10463524 C-6.91650891 15.88608224 -6.90488872 13.66843658 -6.88818359 11.44995117 C-6.88579681 10.1891423 -6.88341003 8.92833344 -6.88095093 7.62931824 C-6.27782983 2.57603508 -5.12387028 0.64048379 0 0 Z " fill="#000000" transform="translate(131.5,279.5625)"/>
<path d="M0 0 C3.3125 0.625 3.3125 0.625 5.25 2.3125 C6.54929926 5.14038664 6.91225937 6.55123325 6.3125 9.625 C4.68633481 11.35536607 3.02799495 12.9863994 1.3125 14.625 C-0.01973294 15.95161529 -1.34892928 17.28128403 -2.67578125 18.61328125 C-6.6796875 22.6171875 -10.68359375 26.62109375 -14.6875 30.625 C-6.89807649 31.36850434 0.80995658 31.76672801 8.6328125 31.80078125 C10.73568732 31.82395915 12.83855196 31.84807562 14.94140625 31.87304688 C18.19750052 31.90818812 21.45321128 31.93756448 24.70947266 31.95092773 C27.89269955 31.96648252 31.07486889 32.00670124 34.2578125 32.05078125 C35.2184964 32.04887283 36.1791803 32.04696442 37.16897583 32.04499817 C47.19281803 32.22438072 55.05504342 35.44924466 62.33203125 42.33984375 C68.83431541 49.84247932 70.471657 57.81547214 70.4453125 67.484375 C70.44676773 68.25434814 70.44822296 69.02432129 70.44972229 69.81762695 C70.45197223 72.33680053 70.44567677 74.8558398 70.4375 77.375 C70.43561676 78.23371704 70.43373352 79.09243408 70.43179321 79.97717285 C70.40166196 91.72372415 70.32039426 103.47177712 70.04803467 115.2154541 C70.01612235 116.65017035 69.98894855 118.08500016 69.96661377 119.51989746 C69.93371934 121.50835108 69.87950927 123.49641806 69.82421875 125.484375 C69.79803467 126.60295898 69.77185059 127.72154297 69.74487305 128.87402344 C69.3125 131.625 69.3125 131.625 67.96801758 133.48925781 C65.40347277 135.24862405 63.33496067 134.93983965 60.3125 134.625 C57.3125 132.625 57.3125 132.625 56.3125 129.625 C56.23798996 127.47424124 56.22598198 125.32113988 56.24658203 123.16918945 C56.25359131 122.19294365 56.25359131 122.19294365 56.26074219 121.19697571 C56.27123768 119.78430322 56.28389806 118.37164554 56.29846573 116.95900917 C56.32051556 114.71763985 56.33457859 112.47635553 56.34616089 110.23490906 C56.37971816 103.86197282 56.42114112 97.489176 56.48388672 91.11645508 C56.52171511 87.21616664 56.5446144 83.31602372 56.55819321 79.41557884 C56.56620716 77.93450054 56.57975844 76.45344079 56.59912491 74.97246742 C56.99171246 62.48259671 56.99171246 62.48259671 51.59375 51.56640625 C50.71203125 50.88384766 50.71203125 50.88384766 49.8125 50.1875 C49.2246875 49.71441406 48.636875 49.24132812 48.03125 48.75390625 C44.13243612 46.19309441 40.03960099 46.41004913 35.55078125 46.30859375 C34.77547562 46.28776733 34.00016998 46.26694092 33.20137024 46.2454834 C30.67601246 46.17944905 28.15055101 46.12063708 25.625 46.0625 C23.89827369 46.01965476 22.17154844 45.97676727 20.44482422 45.93383789 C7.39888389 45.62149948 -5.63779642 45.50778709 -18.6875 45.625 C-17.96570557 46.32584717 -17.24391113 47.02669434 -16.50024414 47.7487793 C-13.8195056 50.35700047 -11.15212313 52.97853393 -8.48852539 55.60424805 C-7.33488879 56.73779605 -6.17768402 57.8677247 -5.0168457 58.99389648 C-3.34671054 60.61539388 -1.68993382 62.24956939 -0.03515625 63.88671875 C0.48465317 64.38588303 1.00446259 64.8850473 1.5400238 65.39933777 C4.47032185 68.32779304 6.12507307 70.41963599 6.3125 74.625 C5.3125 77.4375 5.3125 77.4375 3.3125 79.625 C0.125 80.375 0.125 80.375 -3.6875 79.625 C-6.72523419 77.66620734 -9.15004027 75.18460161 -11.6875 72.625 C-12.58082031 71.75617188 -13.47414063 70.88734375 -14.39453125 69.9921875 C-19.16312836 65.32935879 -23.73196506 60.54118957 -28.06640625 55.46875 C-29.77087239 53.53017647 -31.54794692 51.69819039 -33.375 49.875 C-34.23158203 49.01648438 -34.23158203 49.01648438 -35.10546875 48.140625 C-36.7876765 46.48397066 -36.7876765 46.48397066 -39.1875 44.625 C-40.6875 42.625 -40.6875 42.625 -40.57055664 39.328125 C-39.53878107 35.00134263 -38.22235699 33.4471752 -35.05859375 30.375 C-34.5906691 29.91319336 -34.12274445 29.45138672 -33.64064026 28.97558594 C-32.14898913 27.51069276 -30.63761026 26.06820672 -29.125 24.625 C-28.13604427 23.65760321 -27.1484013 22.68886249 -26.16210938 21.71875 C-21.35820872 17.01878025 -16.46720486 12.44551337 -11.33447266 8.10522461 C-9.62247941 6.56656243 -8.15063527 4.90887622 -6.625 3.1875 C-3.6875 0.625 -3.6875 0.625 0 0 Z " fill="#000000" transform="translate(319.6875,84.375)"/>
<path d="M0 0 C3.43380288 2.28920192 5.58509938 4.91386659 8.20703125 8.0625 C11.91687265 12.07139179 16.52760041 14.47881909 22 15 C22.64582031 15.07476562 23.29164063 15.14953125 23.95703125 15.2265625 C30.61528701 15.66966884 35.54629304 13.76861942 41 10 C43.78919841 7.47290017 46.39872908 4.85832143 48.96875 2.109375 C51.64437471 -0.66915835 53.36365417 -1.23788531 57.125 -1.5 C62.3039578 -1.47485943 64.81537947 0.718127 68.46875 4.17578125 C71.09387049 7.30315693 71.11907047 10.26917038 71.3125 14.1875 C72.08152885 23.01967977 75.54774419 28.1343129 82 34 C81.67 34.99 81.34 35.98 81 37 C80.33355469 36.55269531 79.66710937 36.10539062 78.98046875 35.64453125 C57.45518731 21.52515083 33.16178424 15.44115456 7.74365234 20.66210938 C5.82419028 21.08643655 3.91190017 21.54280648 2 22 C0.87851563 22.26683594 -0.24296875 22.53367187 -1.3984375 22.80859375 C-13.72224105 26.16556203 -24.28254736 32.81688199 -34 41 C-34.65097656 41.495 -35.30195312 41.99 -35.97265625 42.5 C-44.0762663 48.9442227 -49.69454044 58.0951687 -55 66.875 C-55.66 67.90625 -56.32 68.9375 -57 70 C-57.66 70 -58.32 70 -59 70 C-59.98358241 66.29282359 -60.96107671 62.58406788 -61.9375 58.875 C-62.21529297 57.82828125 -62.49308594 56.7815625 -62.77929688 55.703125 C-63.04677734 54.68476562 -63.31425781 53.66640625 -63.58984375 52.6171875 C-63.95903931 51.21895752 -63.95903931 51.21895752 -64.33569336 49.79248047 C-65.03627765 46.8475032 -65.68647395 44.01369443 -66 41 C-64.125 38.0625 -64.125 38.0625 -61 36 C-57.0625 36.1875 -57.0625 36.1875 -54.72265625 36.5859375 C-45.85991513 37.93378622 -36.59947412 38.30086775 -29 33 C-23.63748094 28.33437219 -20.4674536 22.5682965 -19.7421875 15.48046875 C-19.65324219 14.19076172 -19.65324219 14.19076172 -19.5625 12.875 C-19.20119271 8.26301876 -18.11931021 5.55254774 -15 2 C-10.24177426 -1.85802087 -5.71138064 -1.90379355 0 0 Z " fill="#F8E4B2" transform="translate(112,36)"/>
<path d="M0 0 C0.66 0.33 1.32 0.66 2 1 C1.64695801 1.5458374 1.29391602 2.0916748 0.93017578 2.65405273 C-0.2996177 5.75564998 0.24978512 7.33697694 1.1171875 10.53515625 C1.39433594 11.59154297 1.67148437 12.64792969 1.95703125 13.73632812 C2.25996094 14.83396484 2.56289063 15.93160156 2.875 17.0625 C3.45858727 19.24012148 4.03944534 21.41847673 4.6171875 23.59765625 C4.88128418 24.56195557 5.14538086 25.52625488 5.41748047 26.51977539 C6 29 6 29 6 32 C6.99 32.495 6.99 32.495 8 33 C7.66226563 33.85722656 7.32453125 34.71445313 6.9765625 35.59765625 C-1.20911039 56.58231478 -1.45971422 76.88254125 2 99 C1.01 99.495 1.01 99.495 0 100 C-0.29132812 99.43410156 -0.58265625 98.86820312 -0.8828125 98.28515625 C-3.42108269 93.52656005 -3.42108269 93.52656005 -7.9375 90.9375 C-10.99604999 90.89131856 -10.99604999 90.89131856 -13.875 91.6875 C-18.32743698 92.1327437 -21.32276006 90.41490384 -25 88 C-25.51175781 87.46890625 -26.02351563 86.9378125 -26.55078125 86.390625 C-28.03555238 84.70407244 -28.03555238 84.70407244 -31 84.5 C-34 84 -34 84 -35.8125 82.75 C-38.63671838 78.58799397 -38.5326712 72.87295507 -38 68 C-36.875 65.125 -36.875 65.125 -35 63 C-33.00428677 62.32060826 -31.00405227 61.65438441 -29 61 C-27.64613064 59.34997172 -26.31321858 57.6825613 -25 56 C-20.02304147 52.88940092 -20.02304147 52.88940092 -16.6875 53.25 C-15 54 -15 54 -14 55 C-11.2587435 55.7555432 -11.2587435 55.7555432 -8 55 C-2.84418201 50.59295226 0.46577372 45.70176264 1.44140625 38.94140625 C1.76060976 30.03459857 -0.05698558 24.64924671 -4.46875 17.15625 C-6.13432118 13.7231339 -6.45172268 11.76085396 -6 8 C-4.2344231 4.9396667 -2.49412245 2.49412245 0 0 Z " fill="#E8D6AC" transform="translate(47,74)"/>
<path d="M0 0 C1.61239411 3.06824511 2.93279237 6.22991562 4.25708008 9.4309082 C13.45591413 31.36061808 28.34441486 46.81196148 49.375 57.5 C50.01646973 57.82637451 50.65793945 58.15274902 51.31884766 58.48901367 C55.78964793 60.65634227 60.149852 61.92457916 65 63 C64.67 63.66 64.34 64.32 64 65 C65.45206628 67.94364483 65.45206628 67.94364483 67.4375 71.125 C68.09621094 72.22070312 68.75492187 73.31640625 69.43359375 74.4453125 C69.95050781 75.28835937 70.46742187 76.13140625 71 77 C70.0919838 78.13199353 69.17316174 79.25532363 68.25 80.375 C67.73953125 81.00148438 67.2290625 81.62796875 66.703125 82.2734375 C63.67024124 85.34805819 61.42736102 85.95864248 57.125 86.375 C52.79414779 86.25402647 50.30987065 84.84802823 47 82 C44.31528959 78.25178112 43.60365831 75.36804634 43.1875 70.8125 C42.09008886 63.05160841 39.69074857 57.44239913 33.91015625 52.05078125 C25.4970737 46.04543614 15.70367271 47.21578706 5.9375 48.75 C2 49 2 49 -1.375 47.3125 C-5.78858017 43.42434604 -7.79843803 40.58593179 -8.34765625 34.66015625 C-7.88973228 31.15626606 -6.41876556 28.99627512 -4.5625 26 C-0.40934252 19.05065729 -0.4027607 13.39722898 -0.8515625 5.45703125 C-1 2 -1 2 0 0 Z " fill="#E5D4AB" transform="translate(49,171)"/>
<path d="M0 0 C0.33 0.66 0.66 1.32 1 2 C1.66 2 2.32 2 3 2 C3.24532471 2.69222656 3.49064941 3.38445312 3.7434082 4.09765625 C9.70359585 20.80985176 16.27703028 37.01441206 24 53 C24.36867188 53.76376953 24.73734375 54.52753906 25.1171875 55.31445312 C30.15163802 65.676715 35.56880592 75.84165552 41 86 C40.01 86.495 40.01 86.495 39 87 C18.98934845 73.75890929 5.4612888 56.74170017 -0.3515625 33.31640625 C-2.24649297 22.79268384 -2.17216199 10.47229315 0 0 Z " fill="#DCBC5E" transform="translate(59,129)"/>
<path d="M0 0 C3.77179756 0.69277914 4.75287094 1.53541171 7.0625 4.5625 C7.55859375 7.91015625 7.55859375 7.91015625 7.5 11.625 C7.49871094 12.85347656 7.49742188 14.08195313 7.49609375 15.34765625 C7.0625 18.5625 7.0625 18.5625 5.72265625 20.43359375 C4.0625 21.5625 4.0625 21.5625 1.0625 22.5625 C-2.28416008 21.17486045 -3.64867726 20.15389894 -5.25 16.875 C-6.30303203 11.80130024 -6.67775814 7.5365217 -4.8125 2.5625 C-2.9375 0.5625 -2.9375 0.5625 0 0 Z " fill="#020201" transform="translate(14.9375,136.4375)"/>
<path d="M0 0 C0.66 0.33 1.32 0.66 2 1 C1.64695801 1.5458374 1.29391602 2.0916748 0.93017578 2.65405273 C-0.2996177 5.75564998 0.24978512 7.33697694 1.1171875 10.53515625 C1.39433594 11.59154297 1.67148437 12.64792969 1.95703125 13.73632812 C2.25996094 14.83396484 2.56289063 15.93160156 2.875 17.0625 C3.45858727 19.24012148 4.03944534 21.41847673 4.6171875 23.59765625 C4.88128418 24.56195557 5.14538086 25.52625488 5.41748047 26.51977539 C6 29 6 29 6 32 C6.66 32.33 7.32 32.66 8 33 C7.47599609 34.32064453 7.47599609 34.32064453 6.94140625 35.66796875 C6.48636719 36.82941406 6.03132813 37.99085937 5.5625 39.1875 C5.11003906 40.33605469 4.65757813 41.48460937 4.19140625 42.66796875 C3.18906699 45.47123233 2.47987205 48.07112576 2 51 C1.34 50.34 0.68 49.68 0 49 C-0.99 49.495 -0.99 49.495 -2 50 C-0.125 44.25 -0.125 44.25 1 42 C2.23926191 32.02957466 0.47929491 25.5600723 -4.46875 17.15625 C-6.13432118 13.7231339 -6.45172268 11.76085396 -6 8 C-4.2344231 4.9396667 -2.49412245 2.49412245 0 0 Z " fill="#E2D1A8" transform="translate(47,74)"/>
<path d="M0 0 C0.99 0.33 1.98 0.66 3 1 C2.34 3.64 1.68 6.28 1 9 C0.34 8.34 -0.32 7.68 -1 7 C-1.99 7.495 -1.99 7.495 -3 8 C-1.125 2.25 -1.125 2.25 0 0 Z " fill="#CFBF9A" transform="translate(48,116)"/>
<path d="M0 0 C0.33 0.66 0.66 1.32 1 2 C1.66 2.33 2.32 2.66 3 3 C2.34 4.98 1.68 6.96 1 9 C0.01 9 -0.98 9 -2 9 C-1.34 6.03 -0.68 3.06 0 0 Z " fill="#D9C79B" transform="translate(226,169)"/>
<path d="M0 0 C0.66 0.33 1.32 0.66 2 1 C-0.31 3.31 -2.62 5.62 -5 8 C-5.66 7.67 -6.32 7.34 -7 7 C-2.25 1.125 -2.25 1.125 0 0 Z " fill="#F3E3AF" transform="translate(24,129)"/>
</svg>
